# xmcd
# 
# Track frame offsets:
#     150
#     13742
#     32054
#     56157
#     71669
#     85059
#     102664
#     117533
#     132226
#     145703
#     160161
#     174703
# 
# Disc length: 2590
# 
# Revision: 0
# Processed by: cddbd v1.5.2PL0 Copyright (c) Steve Scherf et al.
# Submitted via: BonkEnc v1.0.8
# 
DISCID=ab0a1c0c
DTITLE=ΧΑΡΙΣ  ΑΛΕΧΙΟΥ - ΨΙΘΥΡΟΙ
DYEAR=2000
DGENRE=Vocal
TTITLE0=ÁãáðÜù êé áäéáãïñþ
TTITLE1=ÌéêñÞ ðáôñßäá
TTITLE2=Ìç ôïí ñùôÜò ôïí ïõñáíü
TTITLE3=ÐÜñå ìå
TTITLE4=¸íá áóôÝñé ðÝöôåé - ðÝöôåé
TTITLE5=ÐÜôùìá
TTITLE6=Ç ðéï ìåãÜëç þñá
TTITLE7=Ëßãá øß÷ïõëá áãÜðçò óïõ ãõñåýù
TTITLE8=Ôï áãñéïëïýëïõäï
TTITLE9=ÐÜñå ôá ÷íÜñéáìïõ
TTITLE10=Ìç êïõñáóôåßò íá ì' áãáðÜò
TTITLE11=ÆçôÜôå íá óáò ðù
EXTD=
EXTT0=
EXTT1=
EXTT2=
EXTT3=
EXTT4=
EXTT5=
EXTT6=
EXTT7=
EXTT8=
EXTT9=
EXTT10=
EXTT11=
PLAYORDER=
